<svg width="22" height="22" viewBox="0 0 22 22" fill="none" xmlns="http://www.w3.org/2000/svg">
<path fill-rule="evenodd" clip-rule="evenodd" d="M9.85902 0.692137C10.1006 0.644832 10.3501 0.657718 10.5856 0.729657C10.8209 0.801554 11.0349 0.930226 11.2087 1.10433C11.2086 1.10422 11.2088 1.10443 11.2087 1.10433L20.9934 10.8891C21.1338 11.0272 21.2454 11.1917 21.3218 11.3733C21.3989 11.5563 21.4386 11.753 21.4386 11.9516C21.4386 12.1502 21.3989 12.3469 21.3218 12.5299C21.2454 12.7115 21.1338 12.876 20.9934 13.0141L12.5141 21.4935C12.376 21.6338 12.2114 21.7455 12.0299 21.8219C11.8468 21.8989 11.6502 21.9386 11.4516 21.9386C11.2529 21.9386 11.0563 21.8989 10.8732 21.8219C10.6917 21.7455 10.5271 21.6338 10.389 21.4935L0.604607 11.709C0.604503 11.7089 0.60471 11.7091 0.604607 11.709C0.430505 11.5352 0.301524 11.3209 0.229627 11.0856C0.157688 10.8502 0.144802 10.6006 0.192106 10.359L0.192625 10.3564L1.702 2.7908C1.76129 2.49362 1.99359 2.26132 2.29077 2.20203L9.85639 0.692655L10.0031 1.42816L9.85902 0.692137ZM10.1472 2.16418L3.07509 3.57512L1.66415 10.6473L1.66471 10.6478L11.4516 20.4347L19.9347 11.9516L10.1472 2.16418Z" fill="#9F9BA1"/>
</svg>
